PathFileType	4	(X/Y/Z)	/Users/mathieubourgeois/Desktop/Analyse/Traitement/Sujet_07/Data/Transformed_Sujet_07_velo_80.trc
DataRate	CameraRate	NumFrames	NumMarkers	Units	OrigDataRate	OrigDataStartFrame	OrigNumFrames
120.000000	120.000000	4	36	mm	120.000000	934	1868
Frame#	Time	RFHD			LFHD			RBHD			LBHD			C7			CLAV			RSHO			LSHO			STRN			T10			RBWT			LBWT			RFWT			LFWT			RKNI			LKNI			RKNE			LKNE			LANI			RANI			LANE			RANE			LTOE			RTOE			LHEE			RHEE			RHUM			LHUM			RRAD			LRAD			RWRA			RWRB			LWRA			LWRB			LCAR			RCAR			
		X1	Y1	Z1	X2	Y2	Z2	X3	Y3	Z3	X4	Y4	Z4	X5	Y5	Z5	X6	Y6	Z6	X7	Y7	Z7	X8	Y8	Z8	X9	Y9	Z9	X10	Y10	Z10	X11	Y11	Z11	X12	Y12	Z12	X13	Y13	Z13	X14	Y14	Z14	X15	Y15	Z15	X16	Y16	Z16	X17	Y17	Z17	X18	Y18	Z18	X19	Y19	Z19	X20	Y20	Z20	X21	Y21	Z21	X22	Y22	Z22	X23	Y23	Z23	X24	Y24	Z24	X25	Y25	Z25	X26	Y26	Z26	X27	Y27	Z27	X28	Y28	Z28	X29	Y29	Z29	X30	Y30	Z30	X31	Y31	Z31	X32	Y32	Z32	X33	Y33	Z33	X34	Y34	Z34	X35	Y35	Z35	X36	Y36	Z36	

935	7.783333333333333	267.3406066894531	1352.36328125	179.5599670410156	282.4907531738281	1334.337280273438	48.13193893432613	211.55517578125	1493.819946289062	171.1975402832031	224.3907623291016	1489.82373046875	25.84734916687005	65.39318847656249	1481.988037109375	72.6611022949218	45.31828308105468	1346.983154296875	80.40708923339835	75.18105316162107	1428.706787109375	217.1734466552734	97.81609344482422	1456.033813476562	-51.73913192749031	-118.3804168701172	1279.979125976562	58.39305496215811	-181.5333862304688	1509.143920898438	51.33797454833973	-435.0195007324219	1303.9287109375	113.9796905517577	-440.3153686523438	1298.676513671875	0.5403320193289376	-277.2885131835938	1216.7861328125	159.7179565429686	-288.5994567871094	1213.435180664062	-53.82174301147472	8.617340087890611	886.5554809570312	115.5973434448242	-190.8072814941406	708.1707763671875	-43.91152954101569	-13.48498916625979	946.5980834960938	218.5750732421874	-166.5073089599609	755.3154907226562	-150.448959350586	-352.6910705566406	363.6419982910156	-53.44925308227545	-126.1090850830078	526.4390869140625	127.6842803955078	-374.1558532714844	357.72314453125	-141.2348785400391	-153.9997100830078	522.4618530273438	215.0809936523437	-213.3692474365234	220.5123443603516	-109.6815414428711	41.98183822631834	430.0827026367188	200.2715759277343	-432.8377380371094	370.4654541015625	-103.3121414184571	-212.7348022460938	505.12744140625	172.8769989013671	73.76082611083982	1095.883544921875	252.7645721435546	98.9114227294922	1123.344848632812	-125.4242782592774	118.3546295166015	1121.17333984375	298.7479248046874	161.10546875	1140.246704101562	-144.772705078125	319.6343383789062	936.2915649414062	255.4354248046875	281.9411621093749	899.218017578125	309.5293579101562	318.3211975097656	929.0098876953125	-101.520263671875	276.9672241210938	887.9783935546875	-152.8177642822266	371.6151733398438	915.4674682617188	-192.1216278076172	372.3492126464843	924.5746459960938	342.8708190917969	
936	7.791666666666667	267.0924377441406	1352.505981445312	178.5786437988281	282.1947631835938	1334.219482421875	47.24984359741207	211.8125610351562	1493.763061523438	169.7922821044921	224.0339965820312	1489.694946289062	24.91825294494623	64.91201019287108	1482.181274414062	72.50002288818352	45.14422225952148	1346.87353515625	79.70713806152335	75.08762359619138	1428.715454101562	216.3495941162109	97.35099792480469	1455.891479492188	-52.70471954345711	-118.5402221679688	1279.911743164062	57.45969390869131	-181.9123840332031	1509.066528320312	51.41579818725575	-434.9971923828125	1303.436889648438	114.9917068481444	-440.878173828125	1298.63623046875	1.504534482955799	-277.1409606933594	1216.200805664062	159.8555297851561	-289.3262329101562	1213.713012695312	-53.76275634765636	6.529522418975816	878.7814331054688	115.7200469970703	-183.7906951904297	713.3257446289062	-45.76189804077155	-16.30217361450198	938.9797973632812	218.5377197265624	-160.8698577880859	760.217529296875	-151.7816009521485	-357.3800659179688	374.628173828125	-53.31242752075202	-120.1270523071289	515.3875732421875	128.0674896240234	-379.2561950683594	369.1839294433594	-141.025131225586	-147.5932159423828	510.8119812011719	215.4245300292968	-221.5926666259766	228.6085815429688	-109.5533447265625	49.73628234863279	421.2319641113281	200.4492645263672	-436.9354858398438	383.2716979980469	-103.0976486206056	-205.3928680419922	492.4427490234375	172.8458862304687	73.63751220703122	1095.966186523438	252.8535003662109	98.63909912109376	1123.227661132812	-125.8249740600587	118.3346710205078	1121.35400390625	298.6537475585937	160.8523406982422	1140.149169921875	-145.143295288086	319.5186157226562	936.35009765625	255.559097290039	281.8243408203124	899.2750244140625	309.6484069824219	318.0141296386719	928.887451171875	-101.5469512939453	276.9300231933594	887.9901123046875	-152.7426452636719	371.5894470214844	915.53369140625	-192.0242462158203	372.2488098144531	924.6143798828125	342.9900207519531	
937	7.8	266.8800354003906	1352.50048828125	177.6047821044921	281.9555053710938	1334.139038085938	46.28995895385738	211.5183563232422	1493.72216796875	168.7908935546874	223.6551666259766	1489.581909179688	23.91517829895013	64.54272460937499	1482.095947265625	71.58891296386712	44.78326416015624	1346.792358398438	78.85808563232413	74.97656249999997	1428.701171875	215.450714111328	96.78932952880859	1455.733764648438	-53.72949981689461	-118.9628524780273	1279.8212890625	57.22983169555655	-182.3083801269531	1508.958251953125	51.46050643920887	-434.8888854980469	1302.884521484375	116.0174560546874	-441.42919921875	1298.550415039062	2.507504701614246	-276.939697265625	1215.552001953125	159.7630157470702	-289.9285278320312	1214.036376953125	-53.81284332275401	3.685884714126573	870.27099609375	116.3390502929687	-177.4318084716797	718.99072265625	-47.0617752075196	-19.5025272369385	930.5741577148438	218.5460510253906	-154.9780120849609	765.439208984375	-153.0933685302735	-361.1979675292969	386.1865844726562	-53.11668777465827	-114.3324508666992	503.9573974609375	128.3450012207031	-383.6057739257812	381.1372680664062	-140.7772216796876	-141.7281341552735	498.8404846191406	215.6986083984374	-228.5456695556641	237.8036499023438	-109.6586303710938	56.8065605163574	411.6201782226562	200.5847930908203	-441.11376953125	396.2748107910156	-102.4167861938477	-199.1275787353516	479.6929931640625	173.1071014404296	73.517951965332	1096.022216796875	252.8818359374999	98.38020324707033	1123.076416015625	-126.2128143310547	118.2826614379882	1121.516357421875	298.5325622558593	160.5582275390625	1140.02978515625	-145.5695495605469	319.3981628417968	936.4054565429688	255.652603149414	281.7108459472656	899.340087890625	309.7386779785156	318.0104675292969	929.3587646484375	-101.3914794921875	276.9025573730469	887.99658203125	-152.6915588378907	371.5623474121094	915.5916748046875	-191.956298828125	372.1628417968749	924.6802368164062	343.0602111816406	
938	7.808333333333334	266.6184692382812	1352.487426757812	176.6945190429687	281.6669616699219	1334.047485351562	45.31031036376949	211.2081604003906	1493.697021484375	167.7282257080078	223.3030548095703	1489.470092773438	22.83903694152826	64.18164825439452	1482.009643554688	70.65306091308587	44.44220733642577	1346.707763671875	77.96223449707023	74.86920928955075	1428.667724609375	214.5333404541015	96.27126312255859	1455.550659179688	-54.81622695922859	-119.3941421508789	1279.734741210938	56.9211654663085	-182.7978210449219	1508.8798828125	51.44608306884754	-434.8134765625	1302.253295898438	117.0215606689452	-441.9555358886719	1298.453979492188	3.506674528121815	-276.7095642089844	1214.807983398438	159.6395874023436	-290.5667724609375	1214.32421875	-53.78374481201183	-0.846361041069045	861.5582885742188	116.3538360595703	-170.8457183837891	724.9791259765625	-48.29438400268561	-23.00776290893558	921.5451049804688	218.5751495361328	-148.8343505859375	771.0004272460938	-154.319076538086	-364.2945556640625	398.0991821289062	-52.92179489135749	-109.1605377197266	492.2337951660156	128.4946746826172	-387.1214904785156	393.5556640625	-140.4931640625001	-136.4812164306641	486.5497131347656	215.8351135253906	-234.7201843261719	247.4260101318359	-109.7090148925782	63.07598495483396	401.3569641113281	200.619384765625	-444.2664489746094	409.8326110839844	-101.9371795654298	-193.517822265625	466.7704162597656	173.239028930664	73.36639404296872	1096.03125	252.8742523193359	98.17601013183595	1122.924194335938	-126.5621871948243	118.2179794311523	1121.638305664062	298.3486328124999	160.3252716064453	1139.9052734375	-145.9921264648438	319.2845764160156	936.4580688476562	255.6981201171875	281.6152648925781	899.3855590820312	309.7720947265625	317.9449768066406	929.4096069335938	-101.347038269043	276.852294921875	887.9873046875	-152.6306304931641	371.5111083984375	915.6619262695312	-191.9072723388672	372.0572204589843	924.74658203125	343.1029663085938	
